<?xml version="1.0" standalone="no"?>
<!DOCTYPE svg PUBLIC "-//W3C//DTD SVG 20010904//EN"
 "http://www.w3.org/TR/2001/REC-SVG-20010904/DTD/svg10.dtd">
<svg version="1.0" xmlns="http://www.w3.org/2000/svg"
 width="864.000000pt" height="1104.000000pt" viewBox="0 0 864.000000 1104.000000"
 preserveAspectRatio="xMidYMid meet">
<metadata>
Created by potrace 1.16, written by Peter Selinger 2001-2019
</metadata>
<g transform="translate(0.000000,1104.000000) scale(0.100000,-0.100000)"
fill="#000000" stroke="none">
<path d="M3920 10759 c-92 -53 -180 -151 -229 -254 -24 -49 -50 -98 -58 -107
-9 -9 -61 -31 -117 -49 -171 -53 -343 -132 -462 -213 -21 -14 -45 -26 -54 -26
-8 0 -56 39 -105 88 -66 63 -111 97 -165 124 -120 59 -181 71 -375 72 l-170 1
-73 -33 c-149 -68 -243 -135 -340 -246 -60 -69 -135 -214 -151 -294 -24 -119
-6 -243 53 -361 29 -58 46 -76 102 -116 109 -78 144 -88 332 -93 125 -3 165
-7 169 -18 10 -26 -94 -165 -392 -520 -183 -218 -208 -265 -213 -400 -7 -169
46 -300 227 -558 88 -126 111 -166 111 -193 0 -29 -15 -48 -107 -146 -118
-123 -164 -187 -193 -269 -29 -83 -41 -205 -30 -296 12 -93 22 -126 66 -214
l34 -67 -36 -28 c-181 -139 -337 -332 -449 -556 -85 -171 -109 -267 -108 -442
0 -115 3 -140 27 -215 15 -47 54 -136 87 -198 32 -63 59 -118 59 -122 0 -5
-33 -34 -72 -63 -93 -70 -132 -111 -157 -167 -25 -57 -41 -202 -41 -372 0 -73
-4 -150 -9 -170 -5 -20 -30 -69 -56 -108 -92 -138 -186 -413 -216 -630 -19
-137 -16 -411 5 -545 65 -402 263 -991 508 -1507 l61 -128 56 -26 c164 -76
546 -179 856 -231 160 -26 588 -26 730 1 361 67 652 226 837 456 l37 45 144
-17 c80 -9 150 -19 156 -22 7 -4 11 -41 11 -89 0 -110 17 -292 36 -402 41
-227 132 -381 277 -473 130 -82 242 -107 482 -106 173 0 269 12 435 54 159 41
452 182 658 316 150 99 178 112 305 145 367 97 667 291 916 594 87 105 132
175 214 335 238 458 329 873 314 1424 -7 233 -15 317 -53 546 -51 300 -164
688 -296 1010 -33 80 -71 176 -86 214 l-26 68 18 62 c58 208 90 431 67 474 -6
12 -41 38 -78 58 -78 44 -246 167 -316 233 -62 57 -104 122 -147 226 -37 91
-205 524 -255 660 -52 143 -127 292 -199 400 -37 55 -73 122 -81 148 -8 27
-32 81 -55 121 -54 98 -52 119 14 247 130 249 116 344 -63 433 -84 43 -153 62
-270 77 -113 14 -103 -3 -161 269 -129 609 -259 977 -440 1248 -70 104 -224
265 -319 332 -107 75 -128 98 -182 194 -105 190 -218 313 -369 399 -43 24 -54
26 -250 32 -113 3 -232 8 -265 10 -54 5 -66 2 -115 -26z m437 -34 c140 -33
272 -116 368 -232 139 -167 217 -354 233 -555 4 -56 12 -93 19 -95 23 -8 36
43 42 156 l6 114 68 -58 c150 -128 277 -299 377 -507 110 -230 180 -455 305
-983 101 -429 151 -620 190 -735 l36 -105 -153 -150 c-173 -169 -306 -274
-753 -595 -487 -350 -596 -437 -858 -684 -172 -161 -173 -162 -252 -148 -34 7
-109 12 -166 12 -57 0 -110 4 -118 9 -19 12 -6 43 34 80 47 42 61 74 68 151 3
36 17 97 30 135 l24 70 151 12 c144 12 222 30 222 52 0 7 -35 11 -92 11 -130
1 -278 16 -329 35 -24 9 -52 19 -61 22 -27 8 -23 -24 7 -59 14 -16 25 -40 25
-52 0 -28 -29 -126 -37 -126 -3 0 -31 21 -62 46 -159 132 -296 141 -420 28
-51 -46 -72 -92 -80 -178 -6 -70 -6 -70 -41 -79 -134 -34 -240 -79 -345 -146
-27 -17 -61 -31 -76 -31 -49 0 -203 50 -298 96 -77 38 -110 62 -176 128 -45
44 -95 103 -110 129 -107 185 -132 382 -67 521 41 86 101 148 282 291 253 200
296 259 271 371 -38 169 -193 429 -339 567 -59 56 -92 71 -92 43 0 -8 5 -18
10 -21 16 -10 113 -144 168 -232 62 -98 138 -250 163 -322 20 -57 25 -136 10
-146 -5 -3 -28 15 -51 39 -23 24 -64 54 -91 65 -45 20 -51 20 -79 6 -35 -18
-50 -43 -50 -82 0 -33 17 -62 72 -118 l38 -41 -66 -48 c-162 -120 -253 -215
-308 -325 -58 -114 -72 -288 -35 -427 12 -43 24 -94 26 -111 5 -29 2 -33 -18
-33 -34 0 -118 93 -158 174 -48 99 -61 156 -61 282 0 190 43 283 207 451 47
49 92 103 100 122 24 56 4 111 -97 261 -100 149 -105 162 -105 271 0 132 23
181 118 250 56 41 66 53 56 65 -16 19 -83 18 -126 -3 -43 -20 -84 -82 -114
-171 -14 -43 -24 -60 -29 -51 -15 28 -21 136 -10 207 16 113 51 170 215 358
133 151 258 310 405 514 389 540 546 719 751 858 91 61 303 158 412 188 44 11
50 11 68 -7 10 -10 19 -32 19 -48 0 -52 48 -184 90 -248 56 -86 137 -156 233
-203 115 -56 192 -74 317 -75 92 0 111 3 153 24 82 42 63 52 -108 55 -132 2
-160 6 -230 29 -181 60 -310 193 -344 355 -47 224 60 454 254 547 38 18 81 35
95 38 58 10 210 6 267 -8z m-1820 -415 c112 -15 223 -71 319 -162 41 -39 74
-75 74 -80 0 -6 -46 -58 -103 -117 -121 -125 -197 -218 -297 -361 -113 -162
-167 -226 -202 -241 -24 -10 -80 -14 -193 -14 l-160 0 -67 33 c-162 79 -238
256 -194 446 59 252 319 471 586 496 126 11 151 11 237 0z m3570 -2116 c111
-23 175 -49 214 -90 69 -71 48 -130 -161 -449 -149 -226 -230 -379 -237 -449
-9 -77 0 -68 138 132 50 73 109 151 129 175 l38 42 25 -23 c36 -34 68 -115 69
-172 0 -27 -8 -83 -18 -125 -14 -58 -15 -78 -6 -87 10 -10 24 1 66 45 l54 58
20 -33 c28 -46 101 -219 160 -378 28 -74 83 -223 123 -330 130 -351 248 -584
353 -697 52 -56 54 -57 80 -44 24 14 32 12 109 -27 130 -67 132 -70 130 -145
-8 -190 -145 -534 -317 -796 -139 -210 -351 -440 -533 -577 -336 -254 -814
-439 -1328 -515 -323 -48 -820 -48 -867 -1 -12 12 -37 81 -63 173 -23 85 -53
189 -66 231 -12 43 -20 80 -17 83 3 4 66 -18 139 -48 291 -119 454 -153 679
-144 165 7 272 32 396 92 156 75 287 185 435 361 74 88 94 100 185 107 121 9
162 50 210 207 94 308 152 464 190 509 13 16 44 41 68 55 79 46 165 162 166
223 0 42 -22 34 -91 -32 -61 -59 -98 -78 -92 -48 24 114 33 433 13 433 -19 0
-38 -57 -70 -205 -20 -92 -67 -253 -122 -415 -49 -146 -101 -312 -116 -369
-15 -58 -33 -106 -39 -108 -7 -3 -24 35 -44 99 -76 248 -204 448 -407 639
-216 203 -477 332 -756 373 -54 8 -103 19 -109 25 -13 13 30 69 188 251 232
265 398 415 575 519 143 83 189 114 195 129 8 22 -87 9 -172 -24 -109 -41
-133 -48 -140 -41 -9 10 49 69 129 129 73 57 78 78 18 78 -27 0 -54 -11 -97
-40 -65 -43 -222 -201 -264 -265 -15 -22 -52 -80 -84 -130 -77 -120 -186 -254
-322 -397 -72 -76 -121 -137 -138 -173 -26 -53 -27 -60 -18 -135 5 -44 7 -80
5 -80 -2 0 -38 21 -80 47 -42 25 -122 66 -177 90 -55 25 -110 55 -123 67 l-23
23 45 50 c54 60 236 210 476 393 334 255 527 427 502 452 -7 7 -32 -4 -83 -37
-111 -72 -625 -453 -788 -584 -171 -139 -257 -201 -277 -201 -54 0 50 123 236
276 125 104 416 322 739 555 560 403 789 607 948 846 79 119 125 264 79 250
-6 -2 -33 -35 -59 -75 -26 -40 -54 -72 -61 -72 -8 0 -21 19 -30 41 -25 61 -66
238 -66 282 0 35 2 37 30 37 17 0 65 -7 107 -16z m-2562 -1643 c88 -40 180
-150 173 -207 -5 -42 -21 -39 -77 10 -113 100 -180 100 -92 -1 41 -45 60 -98
44 -114 -9 -9 -238 57 -284 81 -29 16 -39 44 -39 109 0 52 4 65 28 91 54 61
154 73 247 31z m-1697 -53 c22 -22 12 -45 -30 -73 -127 -82 -228 -186 -277
-283 -29 -57 -23 -71 17 -37 18 15 35 25 37 23 3 -3 -7 -43 -22 -89 -24 -75
-27 -100 -27 -239 -1 -146 1 -159 27 -224 25 -63 66 -129 179 -289 27 -39 42
-72 45 -102 5 -40 3 -44 -23 -58 -40 -20 -224 -67 -262 -67 -44 0 -121 79
-166 172 -46 94 -61 188 -52 333 7 130 23 211 66 337 66 192 152 338 279 471
118 124 175 159 209 125z m282 -154 c128 -130 265 -205 450 -249 41 -10 79
-21 84 -26 6 -5 -9 -36 -37 -76 -141 -207 -176 -430 -111 -725 8 -37 -57 -105
-144 -151 -114 -60 -174 -57 -204 9 -6 13 -14 24 -18 24 -4 0 -10 -44 -13 -97
-8 -125 -21 -169 -62 -210 -40 -40 -73 -42 -113 -8 -46 38 -59 79 -76 232 -19
167 -29 199 -92 296 -78 119 -105 169 -132 237 -24 60 -26 77 -26 225 -1 179
17 293 60 382 26 53 55 81 144 133 45 26 182 88 200 89 3 1 44 -38 90 -85z
m1319 -151 c47 -13 138 -45 201 -70 149 -58 279 -103 302 -103 35 0 18 28 -27
46 -63 24 -64 32 -2 23 122 -17 267 -103 354 -210 29 -35 73 -104 97 -154 65
-130 71 -191 23 -216 -28 -16 -48 10 -77 97 -28 82 -58 117 -131 155 -32 16
-60 29 -62 29 -3 0 -6 -42 -9 -93 -4 -79 -10 -102 -33 -146 -34 -61 -76 -101
-145 -136 -28 -14 -50 -29 -50 -33 0 -4 14 -13 30 -19 29 -11 30 -13 30 -75 0
-76 -21 -123 -69 -155 -57 -39 -116 -27 -242 48 -82 49 -153 62 -193 36 -33
-22 -71 -103 -102 -222 -40 -150 -77 -209 -140 -221 -66 -12 -113 23 -180 136
-49 82 -114 156 -114 129 0 -7 10 -42 22 -76 12 -34 19 -65 15 -70 -15 -15
-122 52 -187 117 -143 142 -222 395 -190 605 48 320 283 569 570 605 94 12
211 2 309 -27z m1206 -513 c297 -211 464 -314 481 -297 12 11 -16 39 -127 127
-154 123 -183 152 -174 179 9 29 131 128 167 135 60 12 261 -73 423 -178 228
-149 412 -349 525 -571 68 -133 67 -152 -9 -299 -76 -149 -147 -250 -250 -358
-108 -114 -192 -177 -316 -238 -148 -72 -201 -84 -385 -84 -171 1 -234 11
-407 69 -288 96 -679 334 -1083 658 -41 34 -77 62 -79 64 -8 6 20 195 34 229
20 49 53 45 183 -22 149 -78 225 -82 302 -17 62 52 73 79 81 190 l6 104 50 47
c57 53 96 116 113 182 22 80 20 76 30 60 5 -8 22 -50 37 -94 35 -101 67 -136
122 -136 154 0 166 106 44 389 -10 23 80 -31 232 -139z m-2044 -606 c81 -117
172 -184 304 -225 109 -33 101 -51 -42 -85 -193 -47 -350 -64 -593 -64 -312 0
-464 17 -555 63 -51 25 -75 46 -86 75 -6 15 -16 22 -27 20 -14 -3 -17 -14 -17
-63 l0 -58 -67 -46 c-87 -60 -118 -101 -118 -159 0 -37 6 -50 33 -77 20 -20
47 -36 68 -39 19 -3 51 -8 71 -11 37 -6 118 -59 126 -82 12 -37 -234 6 -351
62 -150 70 -214 200 -158 320 53 114 271 245 509 306 96 24 107 18 114 -59 9
-92 56 -166 121 -191 16 -6 53 -11 82 -11 46 0 60 5 88 30 38 33 73 104 83
169 8 50 13 53 87 62 66 8 185 62 237 107 19 17 36 31 37 32 1 0 25 -34 54
-76z m4792 -178 c100 -238 201 -572 256 -851 92 -454 107 -987 41 -1388 -31
-187 -111 -474 -129 -462 -5 2 -12 20 -15 39 -13 68 -76 174 -151 254 -179
190 -499 353 -781 397 -137 22 -311 16 -434 -14 -111 -28 -284 -114 -390 -194
-106 -80 -251 -231 -348 -360 l-73 -97 -62 44 c-85 60 -136 84 -224 107 -247
63 -500 -34 -666 -254 -94 -125 -145 -230 -187 -390 -32 -121 -37 -124 -175
-103 -58 8 -111 18 -117 22 -16 10 -4 51 58 196 119 282 265 771 308 1033 25
148 37 349 34 532 -2 94 -1 174 2 177 3 3 104 1 224 -4 337 -13 638 6 894 56
553 109 1011 343 1368 699 170 169 327 381 444 599 53 99 54 100 69 76 9 -13
33 -64 54 -114z m-3935 -139 c26 -27 43 -52 40 -62 -4 -22 -91 -71 -210 -121
-162 -67 -184 -102 -213 -324 -36 -269 -74 -308 -197 -201 -100 86 -206 54
-275 -84 -44 -87 -82 -134 -136 -168 -62 -40 -102 -85 -131 -147 -20 -43 -21
-66 -27 -485 -5 -383 -8 -446 -23 -485 -53 -139 -199 -174 -279 -68 -61 81
-61 78 -67 518 -5 370 -7 408 -24 443 -10 21 -30 46 -44 57 -51 40 -133 17
-179 -52 -57 -85 -81 -161 -133 -426 -42 -212 -68 -302 -96 -333 -38 -42 -93
-9 -113 66 -17 63 -14 435 4 541 34 195 126 400 223 501 31 32 87 84 123 115
98 84 117 142 84 254 -27 93 -123 174 -206 174 -19 0 -51 5 -71 11 -31 8 -38
15 -38 35 0 14 7 35 16 49 16 24 146 126 175 137 9 3 57 -4 107 -18 161 -41
302 -57 512 -58 252 -1 417 21 637 85 l103 30 52 -23 c77 -33 158 -31 221 5
26 15 47 32 47 36 0 5 9 20 21 35 24 31 35 27 97 -37z m2590 -33 c4 -39 -30
-73 -53 -54 -17 14 -12 44 13 73 21 24 36 17 40 -19z m-2408 -119 c28 -29 32
-39 24 -53 -23 -38 -361 -193 -453 -208 -32 -5 -42 -3 -47 9 -8 23 21 72 63
104 47 36 332 180 359 182 11 0 35 -15 54 -34z m195 -150 c31 -23 54 -47 53
-55 -5 -25 -200 -116 -359 -167 -82 -26 -149 -50 -149 -54 0 -4 24 -11 53 -14
102 -13 245 28 429 122 117 60 143 63 172 17 42 -63 146 -356 146 -410 0 -11
-24 -42 -52 -70 -221 -213 -632 -421 -973 -493 -55 -12 -174 -27 -264 -33
-157 -12 -164 -13 -180 -37 -30 -47 -19 -618 20 -926 16 -132 28 -173 58 -194
69 -50 271 -77 445 -61 263 25 493 101 747 245 52 30 98 55 101 55 26 0 -204
-629 -290 -794 -64 -121 -118 -168 -297 -256 -153 -75 -313 -128 -470 -155
-149 -26 -701 -27 -835 -2 -161 30 -457 106 -616 158 l-152 50 -41 90 c-126
271 -356 912 -430 1202 -61 235 -75 342 -74 572 0 241 13 338 69 513 38 119
175 409 198 418 7 3 44 -11 82 -29 38 -19 85 -37 104 -40 l35 -6 -29 22 c-107
80 -156 147 -156 212 0 45 11 45 108 -4 88 -44 213 -86 287 -96 100 -13 155
-27 155 -38 0 -17 -87 -119 -137 -162 -58 -49 -158 -176 -192 -244 -95 -188
-165 -583 -141 -799 13 -121 20 -147 54 -201 34 -54 81 -84 120 -76 94 17 136
114 191 438 47 270 85 387 140 423 31 20 63 10 77 -24 7 -17 13 -183 17 -438
l6 -410 37 -76 c39 -78 77 -116 143 -144 117 -48 270 37 325 182 26 68 29 178
20 659 -6 310 -3 322 80 382 89 65 150 125 186 186 50 84 82 117 113 117 16 0
52 -20 90 -50 69 -54 97 -60 155 -36 70 29 112 112 133 266 l8 54 165 56 c111
37 210 79 300 127 74 40 141 71 147 70 7 -1 37 -20 68 -42z m384 -737 c16 -87
22 -168 12 -168 -5 0 -19 13 -30 29 -24 33 -88 77 -98 67 -4 -4 -2 -33 5 -64
16 -76 15 -153 -3 -513 -10 -191 -12 -306 -6 -316 7 -14 11 -10 20 22 18 70
40 215 62 410 11 105 24 194 29 199 5 4 17 -7 27 -25 15 -28 18 -55 17 -164
-1 -71 -9 -173 -17 -225 -22 -131 -82 -364 -105 -408 -40 -77 -331 -247 -561
-326 -179 -62 -282 -79 -486 -80 -161 -1 -184 1 -220 19 -39 19 -40 22 -52 90
-16 101 -33 381 -40 686 l-6 266 185 6 c106 3 218 13 264 22 247 51 685 277
898 464 38 34 75 61 82 61 7 0 17 -22 23 -52z m2436 -929 c223 -39 518 -189
670 -343 196 -198 194 -442 -6 -728 -145 -207 -331 -382 -539 -507 -133 -80
-398 -177 -421 -154 -6 6 10 39 39 84 71 109 148 242 157 270 5 17 -16 2 -76
-56 -368 -354 -432 -410 -601 -522 -125 -82 -328 -181 -466 -226 -102 -34
-261 -72 -268 -64 -2 2 12 22 31 44 82 96 122 241 111 403 -25 367 -217 762
-446 913 -132 87 -310 86 -429 -4 -28 -21 -51 -36 -51 -33 0 20 79 151 125
205 125 152 275 229 443 229 289 0 483 -175 559 -504 13 -54 17 -120 16 -278
0 -115 3 -208 8 -208 4 0 21 37 36 83 25 76 27 94 28 247 0 212 -25 312 -114
457 -17 28 -31 55 -31 61 0 6 27 47 61 92 76 104 241 269 339 342 139 104 342
189 494 208 79 9 240 4 331 -11z m-1900 -913 c198 -93 426 -559 451 -924 7
-99 -8 -215 -35 -277 -23 -52 -82 -110 -130 -127 -54 -19 -233 -16 -306 6
-225 66 -345 187 -404 406 -30 111 -41 224 -41 418 0 157 2 180 24 245 46 136
109 221 190 258 62 28 186 26 251 -5z"/>
<path d="M3445 8606 c-81 -26 -165 -88 -165 -122 0 -22 70 -18 132 8 36 14 76
21 123 22 63 1 80 -3 149 -38 52 -25 102 -61 151 -107 104 -99 128 -90 54 20
-67 100 -159 171 -274 211 -66 23 -112 24 -170 6z"/>
<path d="M3542 7707 c-22 -27 -26 -82 -7 -120 16 -35 77 -98 106 -110 10 -5 8
-11 -11 -24 -14 -10 -41 -33 -60 -50 l-35 -32 28 -1 c33 0 192 62 261 102 52
30 116 86 116 100 0 15 -30 8 -81 -18 -56 -28 -79 -26 -79 6 0 35 -38 97 -76
126 -44 34 -141 46 -162 21z"/>
<path d="M2271 7042 c-70 -20 -144 -88 -162 -150 -48 -164 199 -462 385 -462
95 0 162 66 213 211 22 60 27 93 27 174 1 87 -2 104 -21 131 -65 91 -293 140
-442 96z"/>
<path d="M2335 5977 c-4 -9 -5 -26 -2 -37 3 -10 1 -92 -3 -182 -6 -120 -14
-178 -28 -219 -50 -142 -106 -202 -167 -179 -30 11 -48 46 -70 135 -32 130
-60 159 -125 130 -92 -42 -123 -4 -139 175 -17 195 -51 243 -51 72 1 -119 23
-247 48 -281 25 -34 83 -49 125 -32 57 23 61 21 75 -44 22 -100 43 -148 82
-187 45 -46 89 -50 140 -15 109 73 168 264 158 502 -6 113 -28 199 -43 162z"/>
<path d="M3667 5849 c-7 -57 -35 -112 -59 -117 -8 -2 -39 18 -69 43 -115 98
-138 74 -184 -199 -28 -165 -49 -216 -104 -253 -42 -29 -91 -29 -148 -2 -54
26 -90 69 -98 117 -12 69 -17 67 -46 -13 -41 -112 -70 -173 -85 -179 -41 -16
-71 88 -84 288 -5 81 -11 150 -14 153 -11 11 -26 -40 -35 -118 -11 -100 1
-234 28 -293 21 -48 73 -96 103 -96 27 0 86 66 100 112 12 41 28 48 49 22 29
-36 113 -74 162 -74 114 0 181 89 212 285 34 210 40 239 52 242 7 3 31 -13 55
-35 47 -42 88 -72 100 -72 22 0 78 66 93 110 20 60 17 124 -6 128 -13 2 -17
-9 -22 -49z"/>
<path d="M1850 4436 c-14 -45 -7 -80 26 -124 37 -48 39 -83 10 -230 -31 -160
-32 -191 -5 -226 32 -41 70 -35 128 19 26 25 52 45 57 45 6 0 15 -20 22 -44
34 -128 159 -162 245 -67 44 49 64 112 71 227 9 150 15 155 170 173 109 13
153 38 184 105 38 80 25 102 -20 36 -39 -57 -66 -70 -180 -89 -57 -10 -117
-25 -135 -34 -40 -21 -59 -72 -73 -196 -6 -51 -17 -107 -24 -125 -14 -35 -79
-96 -101 -96 -24 0 -77 53 -95 96 -20 47 -49 68 -77 57 -10 -4 -39 -24 -65
-46 -26 -21 -51 -36 -57 -32 -15 9 -14 84 4 193 21 130 36 162 74 162 47 0 46
17 -3 45 -48 28 -106 97 -106 126 0 9 -8 27 -19 40 l-18 23 -13 -38z"/>
<path d="M3981 3383 c-16 -35 -101 -369 -101 -396 0 -51 -14 3 -31 118 -19
132 -32 174 -44 143 -4 -9 -5 -175 -3 -367 2 -269 6 -353 16 -363 10 -10 14
-10 21 1 9 15 54 233 101 501 17 96 36 179 41 185 5 5 10 7 10 5 1 -3 4 -130
8 -282 3 -152 10 -280 14 -284 4 -4 12 -3 18 3 16 16 23 363 11 548 -13 201
-31 255 -61 188z"/>
<path d="M3669 3240 c-1 -3 -5 -140 -8 -305 -6 -283 -8 -302 -29 -342 -12 -23
-35 -51 -52 -63 -28 -20 -33 -21 -53 -7 -42 27 -48 66 -77 486 -15 208 -29
233 -49 88 -13 -96 -14 -222 -1 -347 12 -121 27 -183 56 -242 43 -86 91 -99
153 -43 88 80 116 206 108 490 -4 176 -15 256 -38 280 -5 5 -10 7 -10 5z"/>
<path d="M3222 3168 c-8 -8 -12 -56 -12 -151 0 -76 -4 -146 -9 -156 -10 -18
-107 -68 -116 -59 -3 3 -12 61 -21 129 -15 124 -26 158 -44 129 -25 -41 -25
-353 1 -580 24 -214 47 -196 55 42 3 90 7 172 9 184 3 14 21 28 56 43 28 11
57 21 64 21 9 0 15 -28 19 -87 8 -100 43 -340 51 -354 4 -5 11 -9 17 -9 16 0
3 525 -16 669 -14 102 -32 191 -39 191 -2 0 -8 -5 -15 -12z"/>
</g>
</svg>
